# Blender 4.5.3 LTS
# www.blender.org
mtllib Untitled.mtl
o Circle
v 0.000000 0.000000 -2.194179
v -0.428063 0.000000 -2.152018
v -0.839676 0.000000 -2.027157
v -1.219020 0.000000 -1.824393
v -1.551519 0.000000 -1.551519
v -1.824393 0.000000 -1.219020
v -2.027157 0.000000 -0.839676
v -2.152018 0.000000 -0.428063
v -2.194179 0.000000 0.000000
v -2.152018 0.000000 0.428063
v -2.027157 0.000000 0.839676
v -1.824393 0.000000 1.219020
v -1.551519 0.000000 1.551519
v -1.219020 0.000000 1.824393
v -0.839676 0.000000 2.027157
v -0.428063 0.000000 2.152018
v 0.000000 0.000000 2.194179
v 0.428063 0.000000 2.152018
v 0.839676 0.000000 2.027157
v 1.219020 0.000000 1.824393
v 1.551519 0.000000 1.551519
v 1.824393 0.000000 1.219020
v 2.027157 0.000000 0.839676
v 2.152018 0.000000 0.428063
v 2.194179 0.000000 0.000000
v 2.152018 0.000000 -0.428063
v 2.027157 0.000000 -0.839676
v 1.824393 0.000000 -1.219020
v 1.551519 0.000000 -1.551519
v 1.219020 0.000000 -1.824393
v 0.839676 0.000000 -2.027157
v 0.428063 0.000000 -2.152018
v 0.000000 0.000000 -3.492634
v -0.681379 0.000000 -3.425524
v -1.336573 0.000000 -3.226773
v -1.940403 0.000000 -2.904019
v -2.469665 0.000000 -2.469665
v -2.904019 0.000000 -1.940403
v -3.226773 0.000000 -1.336573
v -3.425524 0.000000 -0.681379
v -3.492634 0.000000 -0.000000
v -3.425524 0.000000 0.681379
v -3.226773 0.000000 1.336573
v -2.904019 0.000000 1.940403
v -2.469665 0.000000 2.469665
v -1.940403 0.000000 2.904019
v -1.336573 0.000000 3.226773
v -0.681379 0.000000 3.425524
v 0.000000 0.000000 3.492634
v 0.681379 0.000000 3.425524
v 1.336573 0.000000 3.226773
v 1.940403 0.000000 2.904019
v 2.469665 0.000000 2.469665
v 2.904019 0.000000 1.940403
v 3.226773 0.000000 1.336573
v 3.425524 0.000000 0.681379
v 3.492634 0.000000 -0.000000
v 3.425524 0.000000 -0.681379
v 3.226773 0.000000 -1.336573
v 2.904019 0.000000 -1.940403
v 2.469665 0.000000 -2.469665
v 1.940403 0.000000 -2.904019
v 1.336573 0.000000 -3.226773
v 0.681379 0.000000 -3.425524
vn -0.0000 1.0000 -0.0000
vt 0.000000 0.000000
s 0
usemtl Material.001
f 5/1/1 4/1/1 36/1/1 37/1/1
f 32/1/1 31/1/1 63/1/1 64/1/1
f 19/1/1 18/1/1 50/1/1 51/1/1
f 6/1/1 5/1/1 37/1/1 38/1/1
f 1/1/1 32/1/1 64/1/1 33/1/1
f 20/1/1 19/1/1 51/1/1 52/1/1
f 7/1/1 6/1/1 38/1/1 39/1/1
f 21/1/1 20/1/1 52/1/1 53/1/1
f 8/1/1 7/1/1 39/1/1 40/1/1
f 22/1/1 21/1/1 53/1/1 54/1/1
f 9/1/1 8/1/1 40/1/1 41/1/1
f 23/1/1 22/1/1 54/1/1 55/1/1
f 10/1/1 9/1/1 41/1/1 42/1/1
f 24/1/1 23/1/1 55/1/1 56/1/1
f 11/1/1 10/1/1 42/1/1 43/1/1
f 25/1/1 24/1/1 56/1/1 57/1/1
f 12/1/1 11/1/1 43/1/1 44/1/1
f 26/1/1 25/1/1 57/1/1 58/1/1
f 13/1/1 12/1/1 44/1/1 45/1/1
f 27/1/1 26/1/1 58/1/1 59/1/1
f 14/1/1 13/1/1 45/1/1 46/1/1
f 28/1/1 27/1/1 59/1/1 60/1/1
f 15/1/1 14/1/1 46/1/1 47/1/1
f 2/1/1 1/1/1 33/1/1 34/1/1
f 29/1/1 28/1/1 60/1/1 61/1/1
f 16/1/1 15/1/1 47/1/1 48/1/1
f 3/1/1 2/1/1 34/1/1 35/1/1
f 30/1/1 29/1/1 61/1/1 62/1/1
f 17/1/1 16/1/1 48/1/1 49/1/1
f 4/1/1 3/1/1 35/1/1 36/1/1
f 31/1/1 30/1/1 62/1/1 63/1/1
f 18/1/1 17/1/1 49/1/1 50/1/1
